<?xml version="1.0" encoding="utf-8"?>
<!-- Generator: Adobe Illustrator 24.1.2, SVG Export Plug-In . SVG Version: 6.00 Build 0)  -->
<svg version="1.1" id="Layer_1" xmlns="http://www.w3.org/2000/svg" xmlns:xlink="http://www.w3.org/1999/xlink" x="0px" y="0px"
	 viewBox="0 0 43.5 35.3" style="enable-background:new 0 0 43.5 35.3;" xml:space="preserve">
<style type="text/css">
	.st0{fill:#010101;}
</style>
<g id="VikOCc_1_">
	<g>
		<path class="st0" d="M24.7,10.9c-0.4,0-0.8,0-1.2,0c-0.2,0-0.3,0-0.5,0c-0.5-0.1-0.8-0.4-0.8-0.9s0.3-0.9,0.8-0.9
			c0.1,0,0.3,0,0.4,0c2.6,0,5.1,0,7.7,0c0.2,0,0.3,0,0.5,0c0.1-0.5,0.1-0.9,0.1-1.3C32,5.3,32.7,3,34.3,1c0.2-0.2,0.4-0.5,0.6-0.7
			c0.4-0.4,0.9-0.4,1.3,0c0.4,0.3,0.4,0.9,0,1.3c-1.6,1.7-2.3,3.8-2.6,6c-0.1,0.5-0.1,1-0.2,1.5c0.2,0,0.4,0,0.6,0
			c2.7,0,5.5,0,8.2,0c0.1,0,0.3,0,0.4,0c0.5,0,0.9,0.4,0.9,0.9s-0.3,0.9-0.9,0.9c-0.4,0-0.7,0-1.1,0c-0.2,0-0.3,0-0.5,0
			c0,0.4-0.1,0.8-0.1,1.2c-0.1,1.1-0.2,2.2-0.3,3.4c-0.1,1.1-0.2,2.1-0.3,3.2c-0.1,1-0.2,2-0.3,3.1s-0.2,2.2-0.3,3.3
			c-0.1,1.1-0.2,2.2-0.3,3.3c-0.1,1.1-0.2,2.2-0.3,3.2c-0.1,0.9-0.2,1.9-0.3,2.8c0,0.5-0.4,0.9-1,0.9c-1.8,0-3.6,0-5.4,0
			c-1.5,0-2.9,0-4.4,0c-0.8,0-1.1-0.3-1.2-1.1c-0.2-1.7-0.3-3.4-0.5-5c-0.1-1.4-0.2-2.8-0.4-4.1c-0.1-1.4-0.3-2.8-0.4-4.1
			c-0.1-1.4-0.2-2.7-0.4-4.1c-0.1-1.4-0.3-2.8-0.4-4.1C24.8,12.1,24.8,11.5,24.7,10.9z M26.3,11c0.2,1.9,2,21,2.2,22.8
			c2.9,0,5.8,0,8.7,0c0.7-7.6,1.5-15.2,2.2-22.8C35.1,11,30.7,11,26.3,11z"/>
		<path class="st0" d="M12.7,24.4c-3.3,0-6.5,0-9.8,0c-1.5,0-2.8-1.3-2.9-2.8c0-1.2,0.4-2.2,0.9-3.3c0.5-0.9,1.2-1.7,1.9-2.4
			c1.4-1.4,3.1-2.5,4.9-3.2c1.7-0.6,3.4-0.9,5.1-0.8c3.2,0.1,6.1,1.2,8.6,3.1c1.1,0.8,2.1,1.8,2.7,3.1c0.6,1.1,1,2.3,1,3.6
			c0,0.4-0.1,0.8-0.2,1.1c-0.4,1-1.3,1.6-2.4,1.6c-1.2,0-2.4,0-3.6,0C16.9,24.4,14.8,24.4,12.7,24.4L12.7,24.4z M22.7,22.9
			c0.6,0,0.8-0.2,0.9-0.8c0-0.4,0-0.8-0.1-1.1c-0.3-1.8-1.3-3.2-2.6-4.4c-2.1-1.9-4.5-2.9-7.3-3.3c-1.8-0.2-3.6,0-5.3,0.7
			c-2.3,0.9-4.1,2.5-5.6,4.5c-0.6,0.8-1,1.8-1.1,2.8c-0.1,0.7,0.1,1.2,0.7,1.5c0.2,0.1,0.4,0.1,0.6,0.1
			C6.2,22.9,20.9,22.9,22.7,22.9z"/>
		<path class="st0" d="M24.3,29.9c0.5,0,0.8,0.3,0.8,0.8c0.1,1.1-0.1,2.2-0.7,3.2c-0.6,0.9-1.5,1.4-2.7,1.4c-6,0-12.1,0-18.1,0
			c-1.3,0-2.2-0.6-2.9-1.7c-0.5-0.9-0.7-1.8-0.6-2.8c0-0.6,0.4-0.9,1-0.9C3.1,29.9,24.2,29.9,24.3,29.9z M23.5,31.5
			c-7.2,0-14.4,0-21.7,0c0.1,0.8,0.3,1.4,0.6,2c0.3,0.5,0.7,0.4,1.1,0.4c3.8,0,7.6,0,11.4,0c2.3,0,4.7,0,7,0c0.2,0,0.4,0,0.6-0.1
			C23.1,33.5,23.5,32.3,23.5,31.5z"/>
		<path class="st0" d="M20.6,29.3c-0.8,0-1.4-0.3-2-0.8c-0.4-0.3-0.7-0.6-1-0.9s-0.7-0.3-1-0.1c-0.3,0.2-0.5,0.3-0.8,0.5
			c-0.3,0.2-0.7,0.5-1,0.7c-1.2,0.8-2.4,0.8-3.6,0.2c-0.4-0.2-0.8-0.4-1.2-0.7c-0.2-0.1-0.4-0.3-0.7-0.5c-0.3-0.2-0.7-0.4-1.1-0.5
			c-0.5-0.2-1-0.1-1.5,0.4c-0.8,0.9-1.8,1.3-3,1.3c-0.8,0-1.5-0.3-2.2-0.8c-0.5-0.4-0.9-0.8-1.3-1.2C0,26.7-0.1,26.5,0,26.2
			c0-0.4,0.2-0.6,0.6-0.8c0.4-0.1,0.7-0.1,1,0.2c0.3,0.3,0.5,0.5,0.8,0.8s0.7,0.5,1.1,0.6c0.7,0.2,1.3-0.1,1.9-0.6
			c0.1-0.1,0.2-0.2,0.3-0.3c0.5-0.6,1.2-0.8,1.9-0.8c1,0,2,0.4,2.8,1c0.2,0.2,0.5,0.4,0.7,0.5c0.4,0.3,0.8,0.5,1.2,0.6
			c0.4,0.1,0.9,0.1,1.3-0.2c0.4-0.2,0.8-0.5,1.2-0.8c0.3-0.2,0.7-0.5,1-0.6c1-0.5,2-0.4,2.9,0.3c0.4,0.3,0.8,0.7,1.2,1
			c0.6,0.4,1,0.4,1.6,0c0.3-0.2,0.5-0.4,0.7-0.7c0.3-0.2,0.5-0.5,0.8-0.7c0.4-0.3,0.8-0.4,1.3-0.4s0.8,0.3,0.9,0.8s-0.2,0.9-0.7,1
			c-0.4,0.1-0.6,0.2-0.8,0.5c-0.3,0.3-0.7,0.7-1,1C22.1,29,21.4,29.3,20.6,29.3z"/>
		<path class="st0" d="M11.6,16.2c0-0.6,0.4-1,0.9-1c0.6,0,1,0.4,1,1c0,0.5-0.5,1-1,1C12.1,17.2,11.6,16.8,11.6,16.2z"/>
		<path class="st0" d="M17.8,20.4c-0.5,0-0.8-0.3-0.8-0.8s0.4-0.9,0.8-0.8c0.4,0,0.8,0.4,0.8,0.9C18.6,20.1,18.3,20.4,17.8,20.4z"/>
		<path class="st0" d="M6.8,20.4c-0.5,0-0.8-0.3-0.8-0.8s0.4-0.8,0.8-0.8s0.8,0.4,0.8,0.9C7.6,20.1,7.3,20.4,6.8,20.4z"/>
	</g>
</g>
</svg>
