<?xml version="1.0" encoding="utf-8"?>
<!-- Generator: Adobe Illustrator 24.1.2, SVG Export Plug-In . SVG Version: 6.00 Build 0)  -->
<svg version="1.1" id="Layer_1" xmlns="http://www.w3.org/2000/svg" xmlns:xlink="http://www.w3.org/1999/xlink" x="0px" y="0px"
	 viewBox="0 0 34.5 34" style="enable-background:new 0 0 34.5 34;" xml:space="preserve">
<style type="text/css">
	.st0{fill:#010101;}
</style>
<path class="st0" d="M34.5,14.5v-0.8h-5.8L34,5.1c1-1.6,0.5-3.6-1.1-4.6c-1.6-1-3.6-0.5-4.6,1.1l-7.5,12H0v0.8
	c0,0.4-0.3,9.2,6.4,14.2c-1.2,1.1-1.9,2.4-2.3,3.7c-0.1,0.3-0.2,0.7-0.3,1V34H31v-0.6c-0.2-0.4-0.3-0.7-0.4-1.1
	c-0.4-1.3-1.1-2.6-2.4-3.7C34.8,23.6,34.5,14.9,34.5,14.5z M29.2,2.9c0.6-1,1.8-1.4,2.7-0.9c0.9,0.5,1.1,1.8,0.4,2.8l-5.5,8.8h-4.3
	L29.2,2.9z M28.8,32.3h-23c0.4-1,1.1-2.1,2.3-2.9h18.4C27.6,30.2,28.3,31.2,28.8,32.3z M26.4,27.8H8c-5.4-3.6-6.2-10.1-6.3-12.4
	h18.2h1.7h4.2h1.7h5.2C32.6,17.7,31.8,24.2,26.4,27.8z"/>
<path class="st0" d="M15.7,21c0,0,0.1,0,0.4,0c0,0,0.1,0.1,0.2,0.2l0,0c0.2,0.3,0.8,1.2,1.3,1.9l-0.1,0.1l-1.6,2.3h1.8l0.6-0.9
	l0.4-0.5l0.7,1.2l0.1,0.2h2l-1.6-2.3l1.5-2.1h-1.9l-0.8,1.1c-0.3-0.4-1-1.5-1.1-1.5c0.3-0.1,0.5-0.1,0.6-0.2
	c0.2-0.1,0.4-0.3,0.6-0.6c0.1-0.2,0.2-0.5,0.2-0.8c0-0.4-0.1-0.7-0.3-0.9c-0.2-0.3-0.4-0.4-0.7-0.5s-0.7-0.1-1.3-0.1h-3v5.8h1.8V21
	H15.7z M15.5,18.8h0.8c0.3,0,0.5,0,0.7,0.1c0.1,0.1,0.2,0.2,0.2,0.4c0,0.1,0,0.2-0.1,0.3c-0.1,0.1-0.2,0.2-0.3,0.2
	c-0.2,0.1-0.4,0.1-0.5,0.1h-0.8V18.8z"/>
</svg>
