<?xml version="1.0" encoding="utf-8"?>
<!-- Generator: Adobe Illustrator 24.1.2, SVG Export Plug-In . SVG Version: 6.00 Build 0)  -->
<svg version="1.1" id="Layer_1" xmlns="http://www.w3.org/2000/svg" xmlns:xlink="http://www.w3.org/1999/xlink" x="0px" y="0px"
	 viewBox="0 0 42 42" style="enable-background:new 0 0 42 42;" xml:space="preserve">
<style type="text/css">
	.st0{fill:#010101;}
</style>
<g>
	<path class="st0" d="M6.4,41.3c-0.5-0.2-0.9-0.6-1.3-1c-1.2-1.3-2.5-2.5-3.7-3.7c-0.5-0.3-0.7-0.8-0.7-1.3c0-0.8,0.4-1.3,1.1-1.6
		c0.6-0.3,1.2-0.2,1.8,0.2c0.1,0,0.1,0.1,0.2,0.1c0.2-0.2,0.3-0.3,0.5-0.5c0.3-0.3,0.6-0.6,0.9-0.9c0.3-0.3,0.6-0.3,0.9,0
		c0.2,0.2,0.2,0.6,0,0.9c-0.5,0.5-0.9,0.9-1.4,1.4c0.2,0.3,0.5,0.6,0.8,0.8c1.7-1.7,3.3-3.3,5-5c-0.2-0.2-0.5-0.5-0.8-0.8
		c-0.4,0.4-0.8,0.9-1.3,1.3c-0.1,0.1-0.2,0.2-0.3,0.3c-0.2,0.2-0.5,0.2-0.8,0c-0.2-0.2-0.2-0.5-0.1-0.8c0.1-0.1,0.2-0.2,0.3-0.3
		C7.9,30,8.4,29.5,8.9,29c-0.6-0.6-1.2-1.2-1.8-1.8c-0.3-0.3-0.4-0.5-0.4-0.9s0.1-0.7,0.3-0.9c0.3-0.3,0.5-0.5,0.8-0.8
		c0.5-0.5,1.2-0.5,1.8,0c0.1,0.1,0.2,0.3,0.4,0.4c0.1-0.1,0.2-0.2,0.3-0.3c2.2-2.2,4.4-4.4,6.6-6.6c2.6-2.6,5.2-5.2,7.7-7.7
		c0.3-0.3,0.7-0.6,1.2-0.7c0.6-0.1,1.1,0,1.5,0.3c0.2,0.2,0.5,0.4,0.7,0.6c0.1,0.1,0.2,0.2,0.4,0.4c0.3-0.3,0.5-0.5,0.7-0.7
		s0.4-0.4,0.6-0.6c0.3-0.3,0.7-0.5,1.2-0.4C31,9.2,31.1,9.1,31.2,9c1-1,2.1-2.1,3.1-3.1c0.1-0.1,0.2-0.2,0.3-0.2
		c0.2-0.2,0.6-0.1,0.8,0.1s0.2,0.5,0,0.8c-0.1,0.1-0.1,0.2-0.2,0.2c-1,1-2,2-3,3c-0.1,0.1-0.2,0.2-0.4,0.3c0.2,0.2,0.3,0.3,0.5,0.4
		c0,0,0.1-0.1,0.2-0.2c2.4-2.4,4.7-4.7,7.1-7.1c-0.1-0.3,0.1-0.6,0.1-0.9c0-0.1,0-0.1-0.1-0.3c-0.1,0.1-0.2,0.1-0.3,0.2
		c-0.6,0.7-1.3,1.4-2,2.1c-0.1,0.1-0.2,0.2-0.3,0.2c-0.2,0.2-0.6,0.1-0.8-0.1C36,4.2,36,3.9,36.1,3.7c0.1,0,0.2-0.1,0.3-0.1
		C37.3,2.7,38.1,1.9,39,1l0.1-0.1c0.4-0.3,0.9-0.3,1.2,0c0.7,0.7,0.8,1.9,0.2,2.7c-0.1,0.2-0.3,0.3-0.4,0.4
		c-2.3,2.3-4.6,4.6-6.9,6.9c-0.1,0.1-0.3,0.3-0.5,0.4c0.1,0.6-0.2,1-0.6,1.4c-0.4,0.4-0.8,0.8-1.2,1.2c0.1,0.1,0.1,0.2,0.2,0.3
		c0.2,0.2,0.4,0.4,0.5,0.5c0.8,0.9,0.8,2,0,2.8c-0.7,0.7-1.3,1.4-2,2c-2.6,2.6-5.1,5.1-7.7,7.7c-0.3,0.3-0.7,0.3-0.9,0
		c-0.2-0.2-0.2-0.5,0.1-0.8c0.3-0.3,0.7-0.7,1-1c0.1-0.1,0.2-0.2,0.3-0.3c-0.1,0-0.1-0.1-0.2-0.1c-1.6-0.1-3.1-0.6-4.5-1.1
		c-0.9-0.3-1.8-0.6-2.7-0.7c-0.5-0.1-1-0.1-1.4-0.2c-1,1-1.9,1.9-2.9,2.9c0.1,0.2,4.8,4.9,5.4,5.4c0.1-0.1,0.2-0.2,0.3-0.3
		c0.9-0.9,1.7-1.7,2.6-2.6c0.1-0.1,0.3-0.3,0.5-0.3s0.4,0.1,0.5,0.3c0.1,0.2,0.1,0.4,0,0.6c-0.1,0.1-0.2,0.2-0.3,0.3
		c-0.8,0.8-1.7,1.7-2.5,2.5c-0.1,0.1-0.2,0.2-0.3,0.3c0.1,0.1,0.2,0.3,0.4,0.4c0.6,0.5,0.5,1.5,0,1.9c-0.2,0.2-0.4,0.4-0.6,0.6
		c-0.6,0.6-1.3,0.6-1.9,0c-0.6-0.5-1.1-1.1-1.7-1.7L13,33.2c-0.3,0.1-4.6,4.5-5,5c0.1,0.1,0.1,0.2,0.2,0.2c0.5,0.8,0.4,1.6-0.1,2.2
		C7.8,41,7.4,41.2,7,41.3C6.8,41.3,6.6,41.3,6.4,41.3z M29.2,18.2c0.6-0.6,1.2-1.1,1.8-1.7c0.1-0.1,0.1-0.3,0.1-0.4
		c0-0.3-0.2-0.5-0.3-0.6c-1.2-1.2-2.3-2.3-3.5-3.5c-0.3-0.3-0.5-0.5-0.8-0.8c-0.4-0.3-0.8-0.3-1.1,0c-0.1,0.1-0.1,0.1-0.2,0.2
		c-0.9,0.9-1.8,1.8-2.7,2.7c-2.5,2.5-5,5-7.5,7.5c-0.1,0.1-0.2,0.2-0.2,0.4c1.3,0.1,2.5,0.5,3.7,0.9c1,0.4,2,0.7,3,0.8
		c0.7,0.1,1.3,0.1,2,0.2c0.1,0,0.3,0,0.4-0.2c-0.2-0.2-0.5-0.5-0.7-0.7c-0.3-0.3-0.6-0.5-0.8-0.8c-0.2-0.2-0.2-0.6,0-0.8
		c0.2-0.2,0.5-0.2,0.8-0.1c0.1,0.1,0.2,0.1,0.2,0.2c0.4,0.4,0.8,0.8,1.2,1.1c0.1,0.1,0.2,0.1,0.2,0.2c0.5-0.5,1-1,1.4-1.5
		c-0.2-0.2-0.4-0.4-0.6-0.6c-0.3-0.3-0.5-0.5-0.8-0.8s-0.3-0.6,0-0.9c0.2-0.2,0.6-0.2,0.9,0.1c0.1,0.1,0.2,0.2,0.3,0.3
		c0.4,0.4,0.7,0.7,1.2,1.2c0.5-0.5,1-1,1.5-1.5c-0.2-0.2-0.3-0.3-0.4-0.4c-0.4-0.4-0.8-0.7-1.1-1.1c-0.3-0.3-0.2-0.6,0-0.9
		c0.2-0.2,0.6-0.2,0.9,0.1c0.1,0.2,0.3,0.3,0.4,0.5C28.5,17.5,28.9,17.8,29.2,18.2z M8.5,25.5C8.3,25.7,8,26,7.7,26.2
		c0.5,0.6,7.8,7.9,8,8c0.3-0.3,0.6-0.5,0.8-0.7C13.8,30.9,11.2,28.2,8.5,25.5z M11.3,31.6c-1.7,1.7-3.3,3.3-5,5
		c0.2,0.2,0.5,0.5,0.8,0.8c0.4-0.3,4.8-4.7,5-5C11.8,32.1,11.6,31.9,11.3,31.6z M7.3,39.5c0-0.2-0.1-0.3-0.3-0.5
		c-1.1-1.1-2.2-2.2-3.4-3.4c-0.3-0.3-0.5-0.5-0.8-0.8c-0.1-0.1-0.3-0.2-0.5,0c-0.3,0.2-0.6,0.6-0.2,1l0.1,0.1
		c1.3,1.2,2.5,2.4,3.7,3.7C6,39.7,6.2,39.9,6.3,40c0.2,0.1,0.3,0.2,0.5,0.1C7.1,40,7.3,39.8,7.3,39.5z M30.1,13
		c0.5-0.5,0.9-0.9,1.4-1.4c-0.2-0.2-0.4-0.3-0.6-0.5s-0.4-0.4-0.6-0.5c-0.5,0.5-0.9,0.9-1.4,1.4C29.4,12.3,29.7,12.6,30.1,13z"/>
	<path class="st0" d="M41.3,12.9c-0.1,1.2-0.6,2.1-1.7,2.6c-1,0.5-2,0.4-3-0.3s-1.5-2.1-1.1-3.3c0.5-1.3,1.1-2.4,2-3.4
		c0.5-0.6,1-0.6,1.5,0c1,1.1,1.8,2.3,2.2,3.8C41.3,12.5,41.3,12.7,41.3,12.9z M38.3,9.5c-0.1,0.1-0.2,0.2-0.3,0.3
		c-0.2,0.4-0.5,0.7-0.7,1.1c-0.3,0.5-0.5,1-0.7,1.5c-0.1,0.3-0.1,0.7,0,1c0.3,0.9,1.2,1.5,2.2,1.2c0.8-0.2,1.5-1.2,1.2-2.2
		C39.7,11.3,39,10.4,38.3,9.5z"/>
</g>
</svg>
