<?xml version="1.0" encoding="utf-8"?>
<!-- Generator: Adobe Illustrator 24.1.2, SVG Export Plug-In . SVG Version: 6.00 Build 0)  -->
<svg version="1.1" id="Layer_1" xmlns="http://www.w3.org/2000/svg" xmlns:xlink="http://www.w3.org/1999/xlink" x="0px" y="0px"
	 viewBox="0 0 34.6 34.2" style="enable-background:new 0 0 34.6 34.2;" xml:space="preserve">
<style type="text/css">
	.st0{fill:#010101;}
</style>
<g id="_x38_YHfW3_1_">
	<g>
		<path class="st0" d="M2.4,8.5C1.9,8.6,1.5,8.7,1.1,8.8S0.4,8.7,0.2,8.4C0,8.1,0.1,7.7,0.3,7.5c0.1-0.1,0.3-0.2,0.5-0.3
			C1.9,6.9,2.9,6.7,4,6.4c0.6-0.1,0.9,0.1,1.1,0.7c0.3,1,0.5,2.1,0.7,3.1c0,0.2,0,0.5-0.1,0.7c-0.1,0.3-0.4,0.5-0.8,0.4
			c-0.4,0-0.6-0.2-0.7-0.6S4,10,3.9,9.6c0-0.1-0.1-0.2-0.1-0.3C3.7,9.4,3.6,9.5,3.6,9.6c-1,1.9-1.6,3.8-1.8,6
			C1.4,20,2.7,23.9,5.6,27.2c2.2,2.5,4.9,4.1,8.1,4.9c2.2,0.5,4.5,0.5,6.7,0c2.5-0.5,4.7-1.6,6.7-3.3c0.2-0.2,0.4-0.4,0.7-0.3
			c0.3,0,0.6,0.2,0.7,0.5s0.1,0.6-0.1,0.9c-0.2,0.2-0.3,0.3-0.5,0.5c-1.9,1.5-4.1,2.7-6.5,3.3c-1.7,0.5-3.5,0.6-5.3,0.5
			c-3.5-0.2-6.6-1.4-9.4-3.5c-3.3-2.5-5.4-5.8-6.3-9.8C-0.5,16.8,0,12.8,2,9C2.3,8.9,2.3,8.7,2.4,8.5z"/>
		<path class="st0" d="M32.4,25.3c0.3-0.1,0.6-0.1,0.9-0.2c0.1,0,0.3-0.1,0.4-0.1c0.5,0,0.9,0.3,0.9,0.7c0.1,0.4-0.2,0.8-0.6,0.9
			c-0.6,0.2-1.3,0.3-1.9,0.5c-0.4,0.1-0.8,0.2-1.1,0.3c-0.2,0-0.3,0.1-0.5,0.1c-0.4,0-0.7-0.2-0.8-0.6c-0.3-1.1-0.5-2.2-0.8-3.3
			c-0.1-0.7,0.4-1.1,1-1c0.4,0.1,0.5,0.4,0.6,0.7c0.1,0.4,0.2,0.8,0.3,1.2c0.1-0.1,0.1-0.2,0.2-0.3c1.2-2.3,1.8-4.7,1.7-7.3
			c-0.1-4.3-1.6-8-4.7-10.9c-2.3-2.2-5-3.6-8.1-4.1c-4.3-0.7-8.3,0.3-11.8,2.8C7.9,4.8,7.8,5,7.6,5.1c-0.5,0.4-1,0.4-1.3,0
			C6.1,4.8,6,4.2,6.5,3.8c2-1.6,4.2-2.7,6.7-3.3c2.2-0.5,4.4-0.6,6.6-0.3c4,0.6,7.3,2.4,10,5.3c2.4,2.5,3.8,5.5,4.3,8.9
			c0.6,3.6,0.1,7-1.5,10.3C32.5,24.9,32.4,25.1,32.4,25.3C32.3,25.2,32.4,25.2,32.4,25.3z"/>
		<path class="st0" d="M17.9,24.7c0,0.5,0,0.9,0,1.4c0,0.6,0,1.2,0,1.7c0,0.1,0,0.3,0,0.4c0,0.3-0.3,0.4-0.5,0.4
			c-0.3,0-0.5-0.2-0.5-0.5c0-0.2,0-0.3,0-0.5c0-1,0-2,0-3c-0.2-0.1-0.3-0.1-0.5-0.2c-1.3-0.5-2.6-1.2-3.6-2.3
			c-1.2-1.2-1.8-2.6-1.9-4.3c-0.1-1.7,0.3-3.3,1-4.9c1-2.3,2.3-4.3,3.9-6.2c0.3-0.4,0.7-0.8,1-1.2c0.4-0.4,0.7-0.4,1,0
			c2.2,2.5,4.1,5.1,5.3,8.2c0.5,1.4,0.8,2.8,0.7,4.2c-0.1,1.5-0.7,2.9-1.8,4c-1,1.1-2.2,1.8-3.5,2.3c-0.1,0.1-0.3,0.1-0.4,0.2
			C18,24.6,17.9,24.7,17.9,24.7z M17.9,23.4c1-0.3,2.1-1,2.9-1.6c1.3-1.2,2-2.6,2-4.3c0-1.1-0.3-2.2-0.7-3.3c-0.9-2.4-2.3-4.6-4-6.6
			c0,0-0.1-0.1-0.2-0.1c-0.1,0.8-0.1,6,0.1,6.4c0.3-0.3,0.6-0.6,0.8-0.8c0.3-0.3,0.6-0.3,0.8,0c0.2,0.2,0.2,0.5,0,0.8
			c-0.1,0.1-0.2,0.2-0.2,0.2c-0.4,0.4-0.8,0.8-1.2,1.2c-0.2,0.2-0.3,0.5-0.3,0.8c0,1.1,0,2.3,0,3.4c0,0.1,0,0.2,0,0.4
			c0.2-0.1,0.3-0.2,0.4-0.3c0.5-0.5,1.1-1.1,1.6-1.6c0.1-0.1,0.2-0.2,0.4-0.3c0.2-0.1,0.5-0.1,0.6,0.1c0.2,0.2,0.2,0.5,0.1,0.7
			c-0.1,0.1-0.2,0.2-0.3,0.3c-0.8,0.8-1.7,1.7-2.5,2.5c-0.1,0.1-0.3,0.3-0.3,0.4C17.8,22.2,17.9,22.8,17.9,23.4z M16.8,12.8
			c0-0.2,0-0.2,0-0.3c0-1.7,0-3.3,0-5l0,0c0,0,0,0-0.1,0c0,0-0.1,0.1-0.1,0.2c-1.3,1.6-2.5,3.4-3.4,5.3c-0.7,1.5-1.2,3.1-1.1,4.8
			c0,1.2,0.4,2.2,1.1,3.2c0.9,1.2,2.2,1.9,3.5,2.5h0.1c0-0.1,0-0.2,0-0.3c0-0.8,0-1.6,0-2.4c0-0.3-0.1-0.5-0.3-0.7
			c-0.8-0.8-1.7-1.7-2.5-2.5c-0.1-0.1-0.2-0.2-0.3-0.4c-0.1-0.2-0.1-0.5,0.1-0.6c0.2-0.2,0.4-0.2,0.6-0.1c0.1,0.1,0.3,0.2,0.4,0.3
			c0.6,0.6,1.2,1.1,1.7,1.7c0.1,0.1,0.2,0.1,0.3,0.2c0-1.4,0-2.7,0-4c0-0.1-0.1-0.3-0.2-0.4c-0.4-0.5-0.9-0.9-1.4-1.4
			c-0.3-0.3-0.4-0.7-0.2-0.9c0.2-0.3,0.6-0.2,0.9,0.1C16.2,12.3,16.5,12.5,16.8,12.8z"/>
	</g>
</g>
</svg>
