<?xml version="1.0" encoding="utf-8"?>
<!-- Generator: Adobe Illustrator 24.1.2, SVG Export Plug-In . SVG Version: 6.00 Build 0)  -->
<svg version="1.1" id="Layer_1" xmlns="http://www.w3.org/2000/svg" xmlns:xlink="http://www.w3.org/1999/xlink" x="0px" y="0px"
	 viewBox="0 0 34.2 30.7" style="enable-background:new 0 0 34.2 30.7;" xml:space="preserve">
<style type="text/css">
	.st0{fill:#010101;}
</style>
<g id="TBZ5uK_1_">
	<g>
		<path class="st0" d="M17.1,2.7c0.5-0.3,0.9-0.6,1.4-0.9c1.2-0.7,2.5-1.2,3.9-1.5c1-0.2,2-0.3,3-0.2c2.9,0.3,5.2,1.6,6.8,4
			c0.9,1.3,1.4,2.6,1.7,4.1c0.2,1.1,0.3,2.3,0.3,3.4c-0.1,1.5-0.3,3-0.8,4.4c-0.6,1.8-1.5,3.5-2.6,5.1c-0.9,1.3-2,2.5-3.1,3.5
			c-1.4,1.3-2.8,2.3-4.4,3.3c-1.7,1-3.4,1.9-5.2,2.6c-0.5,0.2-1,0.3-1.5,0.1c-0.3-0.1-0.5-0.2-0.8-0.3c-1.8-0.8-3.6-1.7-5.3-2.8
			c-2.2-1.4-4.2-3.1-6-5.2c-1.5-1.8-2.8-3.9-3.6-6.1c-0.3-0.9-0.5-1.7-0.7-2.6C0,12.4-0.1,11.2,0,10c0.1-1.9,0.6-3.7,1.5-5.3
			C2.3,3.2,3.4,2,4.9,1.2c1-0.6,2.1-1,3.3-1.1C8.9,0,9.6,0,10.3,0c1.3,0.1,2.5,0.4,3.7,0.9c1,0.4,1.9,0.9,2.8,1.5
			C17,2.6,17.1,2.6,17.1,2.7z M7.7,15c0,0,0-0.1,0.1-0.1c0.7-1.6,1.4-3.3,2.1-4.9c0.2-0.4,0.4-0.9,0.6-1.3s0.6-0.6,1-0.5
			c0.3,0.1,0.4,0.3,0.6,0.5c0.4,0.9,0.8,1.8,1.2,2.7c0.7,1.5,1.3,3,2,4.5c0,0.1,0,0.2,0.1,0.2c0-0.1,0.1-0.1,0.1-0.2
			c0.3-0.4,0.5-0.8,0.8-1.2c0.3-0.4,0.5-0.8,0.8-1.3c0.4-0.5,1.2-0.5,1.5,0.1c0.2,0.3,0.4,0.7,0.5,1c0.7,1.2,1.4,2.4,2,3.7
			c0,0.1,0.1,0.1,0.1,0.2c0-0.1,0.1-0.2,0.1-0.2c0.4-1.1,0.8-2.1,1.2-3.2c0.5-1.3,1-2.6,1.4-4c0-0.1,0.1-0.2,0.2-0.3
			c0.3-0.4,1.1-0.4,1.4,0.2c0.5,0.9,1,1.9,1.4,2.8c0.2,0.4,0.5,0.9,0.7,1.3c1.5,0,3,0,4.5,0l0,0v-0.1c0.3-1.1,0.5-2.3,0.5-3.5
			c0-1-0.1-2-0.3-3c-0.3-1.2-0.7-2.3-1.4-3.3c-0.7-1.1-1.7-2-2.9-2.6c-0.9-0.5-1.9-0.7-2.9-0.8c-0.7,0-1.3,0-2,0.1
			c-1.3,0.2-2.5,0.7-3.6,1.3c-0.7,0.4-1.3,0.8-1.9,1.2c-0.4,0.3-0.7,0.3-1.1,0c-0.2-0.1-0.4-0.3-0.6-0.4c-1-0.7-2.1-1.3-3.3-1.7
			c-1.3-0.4-2.6-0.6-4-0.5c-1,0.1-2,0.5-2.8,1c-1.1,0.7-2,1.6-2.7,2.8C2.2,7,1.8,8.6,1.7,10.3c-0.1,1.3,0,2.5,0.3,3.8
			c0.1,0.3,0.2,0.6,0.2,0.9C4.2,15,5.9,15,7.7,15z M3,16.7C3,16.7,3,16.8,3,16.7c0.1,0.2,0.1,0.4,0.2,0.6c0.9,1.9,2.1,3.6,3.5,5.1
			c1.6,1.7,3.5,3.2,5.5,4.4c1.5,0.9,3.1,1.7,4.7,2.4c0.2,0.1,0.3,0.1,0.5,0c0.3-0.1,0.6-0.2,0.9-0.4c2-0.9,3.9-1.9,5.7-3.2
			c2-1.4,3.8-3.1,5.3-5c0.8-1.1,1.6-2.3,2.1-3.6c0-0.1,0.1-0.1,0.1-0.2c-0.1,0-0.2,0-0.3,0c-0.9,0-1.8,0-2.7,0c-0.5,0-1,0-1.5,0
			c-0.4,0-0.7-0.2-0.8-0.5c0,0,0-0.1-0.1-0.1c-0.4-0.8-0.8-1.5-1.2-2.3c-0.1-0.2-0.2-0.3-0.3-0.5c0,0.1-0.1,0.2-0.1,0.2
			c-0.8,2.2-1.6,4.4-2.4,6.5c-0.1,0.2-0.2,0.4-0.2,0.7c-0.1,0.3-0.4,0.5-0.7,0.5c-0.3,0-0.6-0.1-0.8-0.4c0,0,0-0.1-0.1-0.1
			c-0.9-1.6-1.8-3.3-2.7-4.9c0-0.1-0.1-0.1-0.1-0.2c-0.1,0.1-0.1,0.1-0.1,0.2c-0.5,0.8-1.1,1.7-1.6,2.5c-0.1,0.1-0.1,0.2-0.2,0.3
			c-0.4,0.3-1,0.2-1.2-0.3c-0.1-0.1-0.1-0.3-0.2-0.5c-1-2.2-1.9-4.4-2.9-6.5c0-0.1-0.1-0.1-0.1-0.2c0,0.1-0.1,0.2-0.1,0.3
			c-0.7,1.6-1.4,3.2-2.1,4.8c-0.2,0.4-0.5,0.6-0.9,0.6c-0.7,0-1.4,0-2.1,0c-1,0-2,0-2.9,0C3.1,16.7,3.1,16.7,3,16.7z"/>
	</g>
</g>
</svg>
