<?xml version="1.0" encoding="utf-8"?>
<!-- Generator: Adobe Illustrator 24.1.2, SVG Export Plug-In . SVG Version: 6.00 Build 0)  -->
<svg version="1.1" id="Layer_1" xmlns="http://www.w3.org/2000/svg" xmlns:xlink="http://www.w3.org/1999/xlink" x="0px" y="0px"
	 viewBox="0 0 43.7 25.9" style="enable-background:new 0 0 43.7 25.9;" xml:space="preserve">
<style type="text/css">
	.st0{fill:#010101;}
</style>
<g>
	<path class="st0" d="M0,17.1c0.7-0.4,1.5-0.8,2.2-1.2c0.6-0.2,1-0.5,1.2-1.1c0.2-0.6,0.6-1.1,0.8-1.6c0.2-0.6,0.7-0.8,1.3-0.8
		c0.7,0,1.4,0,2.1,0c0.4,0,0.6-0.1,0.7-0.6c0.3-2.8,1.8-4.6,4.5-5.3c0.3-0.1,0.5-0.2,0.5-0.6c0.2-1.4,0.7-1.8,2.1-1.8
		c1.1,0,2.1,0,3.1,0c1.2,0,1.7,0.5,1.8,1.6c0,0.5,0.2,0.7,0.7,0.8c0.7,0.2,1.3,0.7,1.9,1c0.3,0.2,0.7,0.3,1.1,0.1
		c3.8-1.6,7.6-3.1,11.3-4.7C35.6,3,35.8,2.7,36,2.5c0.2-0.2,0.5-0.5,0.7-0.6c1.5-0.7,3-1.2,4.5-1.8c0.6-0.2,0.9-0.1,1.1,0.4
		c0.4,1,0.8,2,1.2,3c0.2,0.5,0,0.7-0.4,0.9c-1.6,0.7-3.3,1.4-4.9,2.1c-0.1,0-0.5,0.1-0.5,0.1c-1.1-0.2-1.2,0-2.5,0.6
		C32.2,8.3,29,9.7,26,11c-0.2,0.1-0.6,0.2-0.7,0.5c-0.2,0.5,0.1,0.9,0.7,1.1c0.4,0.1,0.8,0.2,1.2,0.5c0.9,0.7,1.8,1.4,2.6,2.1
		c0.4,0.3,0.9,0.5,1.5,0.5c1.1,0,3.2,0.6,4.2,1.3c0.3,0.2,0.5,0.6,0.2,0.9c-0.2,0.2-0.7,0.2-0.9,0.2c-0.1,0-0.2-0.1-0.2-0.2
		c-0.9-0.9-2.1-1-3.3-1c-8.5,0-17,0-25.5,0c-1.5,0-2.9,0.2-4.1,0.8C1,18,0.5,18.1,0.1,17.6C0,17.4,0,17.3,0,17.1z M16.9,12.5
		c0.9,0,1.7,0,2.6,0c1.4,0,2.7,0,4.1,0c0.3,0,0.7,0,0.7-0.5c0-2-1.8-4.1-3.8-4.3c-2.3-0.2-4.5-0.1-6.8-0.1c-1.8,0-3.9,1.8-4.1,3.9
		c-0.1,0.9-0.1,0.9,0.8,0.9C12.5,12.5,14.6,12.5,16.9,12.5z M27.8,15.7c0-0.1-0.8-1.7-3-1.7c-6.1,0-12.1,0.1-18.2,0
		c-0.7,0-1.3,0.2-1.6,1c-0.3,0.7-0.3,0.7,0.6,0.8c0.1,0,0.2,0,0.3,0c7,0,14,0,21,0C27.2,15.7,27.5,15.7,27.8,15.7z M32.3,18.2
		c0.5,0,1.2,0.1,1.6,0.3c1.2,0.7,1.5,2.4,0.5,3.4c-1,1-2.1,2-3.1,3c-0.7,0.7-1.7,1-2.7,1c-6.6,0-13.1,0-19.7,0
		c-0.7,0-1.5-0.2-2.1-0.5c-1.5-0.7-3-1.4-4.4-2.1c-1.2-0.6-1.7-1.6-1.5-3c0.2-1.1,1.1-1.9,2.3-2c1.2-0.1,2.3-0.1,3.4-0.1
		C10.5,18.2,27.6,18.1,32.3,18.2z M7.8,24.4c-0.1-0.6-0.2-1-0.1-1.3c0-1.6,1.3-2.7,2.9-2.7c1.5,0.1,2.7,1.4,2.6,3
		c0,0.4-0.1,0.8-0.1,1.2c0.4,0,0.9,0.1,1.3,0.1c0.2,0,0.5,0,0.7,0c0.6,0,0.8-0.1,0.7-0.7c-0.2-1.2,0.7-2.4,1.8-2.6
		c1.2-0.3,2.5,0.4,2.9,1.6c0.1,0.3,0.2,0.7,0.1,1.1c-0.2,0.7,0.2,0.8,0.7,0.7c0.6,0,1.1,0,1.6,0c0.9,0,0.9,0,0.7-0.9
		c-0.2-1.2,0.2-2.5,1.2-3.1c1-0.6,2.4-0.6,3.3,0.2c0.8,0.6,1.5,2.1,1,3.1C29,24.1,29,24.4,29,24.6c1.3-0.1,2-1,2.7-1.7
		c0.1-0.1,0-0.3-0.2-0.4c-0.7-0.6-1-1.3-0.9-2.2c0.1-0.5-0.2-0.6-0.6-0.6c-0.2,0-0.3,0-0.5,0c-7.7,0-15.2,0.1-22.9,0.2
		c-0.2,0-0.6,0-0.9,0.1C6,21.1,6,22.1,5.2,23c-0.1,0.1,0.1,0.4,0.2,0.4C6.1,23.6,6.9,24,7.8,24.4z M27.9,23.1
		c0.1-0.7-0.7-1.6-1.4-1.6c-0.8-0.1-1.6,0.6-1.7,1.4s0.6,1.6,1.5,1.7C27,24.6,27.8,23.9,27.9,23.1z M11.8,23.1
		c0-0.7-0.7-1.5-1.4-1.5c-0.7,0-1.4,0.7-1.4,1.5c0,0.7,0.7,1.4,1.4,1.4C11.1,24.6,11.8,23.9,11.8,23.1z M4.5,20.9
		c0-0.7-0.6-1.2-1.2-1.2c-0.7,0-1.2,0.6-1.2,1.2c0,0.7,0.6,1.2,1.2,1.2S4.5,21.5,4.5,20.9z M19.2,23.5c0-0.5-0.5-1.1-1.1-1.1
		c-0.6,0-1.1,0.5-1.1,1.1s0.5,1.1,1,1.1C18.6,24.6,19.1,24.1,19.2,23.5z M32.8,19.5c-0.5,0-0.8,0.3-0.8,0.9s0.3,0.9,0.9,0.9
		c0.5,0,0.8-0.4,0.9-0.8C33.7,20,33.2,19.5,32.8,19.5z M19.4,6.9c0.1,0,0.2,0,0.2-0.2c0-0.7-0.2-1.6-0.9-1.6c-0.8-0.1-2.6,0-3.4,0
		c-0.7,0-0.8,0.7-0.9,1.5c0,0.3-0.1,0.3,0.2,0.3C15.6,6.9,18.9,6.9,19.4,6.9z M37.4,3.6L24.8,8.8l0.6,1.3l12.6-5.2L37.4,3.6z
		 M38.2,5.6l4.3-1.7l-1.1-2.6l-4.3,1.8L38.2,5.6z"/>
</g>
</svg>
