<?xml version="1.0" encoding="utf-8"?>
<!-- Generator: Adobe Illustrator 24.1.2, SVG Export Plug-In . SVG Version: 6.00 Build 0)  -->
<svg version="1.1" id="Layer_1" xmlns="http://www.w3.org/2000/svg" xmlns:xlink="http://www.w3.org/1999/xlink" x="0px" y="0px"
	 viewBox="0 0 324.4 130.1" style="enable-background:new 0 0 324.4 130.1;" xml:space="preserve">
<style type="text/css">
	.st0{fill:url(#SVGID_1_);}
	.st1{fill:url(#SVGID_2_);}
	.st2{fill:url(#SVGID_3_);}
	.st3{fill:url(#SVGID_4_);}
	.st4{fill:#FFFFFF;}
	.st5{fill:#3C3C3B;}
</style>
<g>
	<g>
		<linearGradient id="SVGID_1_" gradientUnits="userSpaceOnUse" x1="199.0311" y1="0.2792" x2="199.0311" y2="69.941">
			<stop  offset="0.1168" style="stop-color:#FAEB8D"/>
			<stop  offset="0.416" style="stop-color:#FFF9B1"/>
			<stop  offset="0.4619" style="stop-color:#EDDC92"/>
			<stop  offset="0.5846" style="stop-color:#C09445"/>
			<stop  offset="0.641" style="stop-color:#AE7726"/>
		</linearGradient>
		<path class="st0" d="M237.6,69.9h-16.7V31.3c0-2.2-0.4-4.2-1.1-5.9c-0.8-1.7-1.8-3.2-3.1-4.5c-1.3-1.2-2.8-2.2-4.5-2.9
			c-1.7-0.7-3.6-1-5.6-1h-29.3v52.9h-16.8V8.6c0-1.2,0.2-2.2,0.6-3.3c0.4-1,1-1.9,1.8-2.6c0.8-0.8,1.7-1.3,2.7-1.8
			c1-0.4,2.1-0.6,3.3-0.6h37.8c2.1,0,4.3,0.2,6.7,0.7c2.3,0.5,4.7,1.2,7,2.3c2.3,1.1,4.5,2.4,6.6,4c2.1,1.6,3.9,3.6,5.5,5.9
			c1.6,2.3,2.9,5,3.8,8c0.9,3,1.4,6.4,1.4,10.2V69.9z"/>
		<g>
			<linearGradient id="SVGID_2_" gradientUnits="userSpaceOnUse" x1="32.1837" y1="0" x2="32.1837" y2="69.5273">
				<stop  offset="0.1168" style="stop-color:#FAEB8D"/>
				<stop  offset="0.416" style="stop-color:#FFF9B1"/>
				<stop  offset="0.4619" style="stop-color:#EDDC92"/>
				<stop  offset="0.5846" style="stop-color:#C09445"/>
				<stop  offset="0.641" style="stop-color:#AE7726"/>
			</linearGradient>
			<path class="st1" d="M47.6,69.5h-38c-4.9,0-8.8-4-8.8-8.8c0-4.9,4-8.8,8.8-8.8h37c0.1-0.8,0.1-1.9,0.1-3.4v-1.8c0-1,0-2.3,0-3.3
				H18.6c-4.1,0-10-0.5-14.2-4.7c-4.4-4.4-4.3-10-4.3-14.9c0-0.6,0-2.5,0-3.1C-0.1,16.4-0.4,10,4.4,5.1C7.6,1.7,12.3,0,18.2,0h33.6
				c4.9,0,8.8,4,8.8,8.8c0,4.9-4,8.8-8.8,8.8H18.2c-0.2,0-0.4,0-0.6,0c0,0.7,0,1.5,0.1,2.2c0,0.9,0.1,1.8,0.1,2.7c0,0.7,0,1.3,0,2
				c0,0.6,0,1.2,0,1.8c0.3,0,0.5,0,0.9,0h28.5c5.5,0,9.7,1.5,12.7,4.5c4.6,4.6,4.6,10.7,4.5,16.6v1.1C64.4,54.2,64.4,69.5,47.6,69.5
				z"/>
		</g>
		<linearGradient id="SVGID_3_" gradientUnits="userSpaceOnUse" x1="111.8761" y1="0.2792" x2="111.8761" y2="69.941">
			<stop  offset="0.1168" style="stop-color:#FAEB8D"/>
			<stop  offset="0.416" style="stop-color:#FFF9B1"/>
			<stop  offset="0.4619" style="stop-color:#EDDC92"/>
			<stop  offset="0.5846" style="stop-color:#C09445"/>
			<stop  offset="0.641" style="stop-color:#AE7726"/>
		</linearGradient>
		<path class="st2" d="M148.1,12.8c-1.6-3-3.5-5.4-5.9-7.3c-2.3-1.9-4.9-3.2-7.6-4c-2.7-0.8-5.3-1.2-7.6-1.2H96.8
			c-0.7,0-1.5,0-2.3,0.1C91.6,0.8,87,2.6,87,9.2c0,8.2,9.8,7.8,9.8,7.8h30.1c2.2,0,3.9,0.6,5.1,1.7c1.2,1.2,1.7,2.8,1.7,5v22.7
			c0,2.2-0.6,3.9-1.7,5c-1.2,1.1-2.9,1.7-5.1,1.7H96.8c-2.2,0-3.9-0.6-5-1.7c-1.2-1.1-1.7-2.8-1.7-5.2V24.5c0,0,0.2-9.7-8.1-9.7
			c-5.6,0-8.6,3.5-8.6,7.9c0,0,0,0.1,0,0.1c0,0.2,0,0.3,0,0.2c0,0.5,0,1,0,1.5v22c0,2.4,0.4,4.9,1.3,7.7c0.8,2.7,2.2,5.3,4,7.6
			c1.8,2.3,4.3,4.3,7.3,5.8c3,1.5,6.7,2.3,11,2.3H127c2.3,0,4.9-0.4,7.6-1.2c2.8-0.8,5.3-2.2,7.6-4c2.3-1.9,4.3-4.3,5.9-7.3
			c1.6-3,2.4-6.6,2.4-10.9V23.8C150.5,19.5,149.7,15.8,148.1,12.8z"/>
		<linearGradient id="SVGID_4_" gradientUnits="userSpaceOnUse" x1="285.7668" y1="0.2792" x2="285.7668" y2="69.941">
			<stop  offset="0.1168" style="stop-color:#FAEB8D"/>
			<stop  offset="0.416" style="stop-color:#FFF9B1"/>
			<stop  offset="0.4619" style="stop-color:#EDDC92"/>
			<stop  offset="0.5846" style="stop-color:#C09445"/>
			<stop  offset="0.641" style="stop-color:#AE7726"/>
		</linearGradient>
		<path class="st3" d="M324.4,23.7c0-2.4-0.4-4.9-1.3-7.7c-0.8-2.7-2.2-5.3-4-7.6c-1.8-2.3-4.3-4.3-7.3-5.8c-3-1.5-6.7-2.3-11-2.3
			h-30.2c-2.3,0-4.9,0.4-7.6,1.2c-2.8,0.8-5.3,2.2-7.6,4c-2.3,1.9-4.3,4.3-5.9,7.3c-1.6,3-2.4,6.6-2.4,10.9v22.7c0,4.3,0.8,8,2.4,11
			c1.6,3,3.5,5.4,5.9,7.3c2.3,1.9,4.9,3.2,7.6,4c2.7,0.8,5.3,1.2,7.6,1.2h23.1c5,0,10.4-2.9,10.4-8.9c0-8-10.4-7.9-10.4-7.9h-23
			c-2.2,0-3.9-0.6-5.1-1.7c-1.2-1.2-1.7-2.8-1.7-5V23.7c0-2.2,0.6-3.9,1.7-5c1.2-1.1,2.9-1.7,5.1-1.7h30.1c2.2,0,3.9,0.6,5,1.7
			c1.2,1.1,1.7,2.8,1.7,5.2v19.1v18.8c0,4.5,3.7,8.2,8.2,8.2c4.5,0,8.6-3.7,8.6-8.2V23.7z"/>
	</g>
	<g>
		<path class="st4" d="M312.8,108.8c0,11.8-9.5,21.3-21.3,21.3H32.9c-11.8,0-21.3-9.5-21.3-21.3l0,0c0-11.8,9.5-21.3,21.3-21.3
			h258.6C303.3,87.5,312.8,97,312.8,108.8L312.8,108.8z"/>
		<g>
			<path class="st5" d="M63.5,120.3v-12.2c0-4.2-2.4-7-6.5-7c-4,0-7.1,3-7.1,7.3v11.8h-2V99.8h2v3.8c1.4-2.4,3.7-4.3,7.4-4.3
				c5.2,0,8.2,3.5,8.2,8.4v12.5H63.5z"/>
			<path class="st5" d="M93.5,120.3v-3.4c-1.4,2-3.9,3.9-7.8,3.9c-3.8,0-7.9-2.2-7.9-6.4v-0.1c0-4.3,3.7-6.7,8.9-6.7
				c2.9,0,4.8,0.4,6.8,0.9v-0.9c0-4.1-2.5-6.3-6.7-6.3c-2.5,0-4.5,0.7-6.4,1.6l-0.7-1.7c2.2-1,4.5-1.8,7.3-1.8c5.3,0,8.5,2.7,8.5,8
				v12.8H93.5z M93.5,110.3c-1.7-0.4-4-0.9-6.9-0.9c-4.3,0-6.7,1.9-6.7,4.8v0.1c0,3,2.8,4.7,5.9,4.7c4.2,0,7.7-2.6,7.7-6.3V110.3z"
				/>
			<path class="st5" d="M124.9,120.3v-12.2c0-4.2-2.4-7-6.5-7c-4,0-7.1,3-7.1,7.3v11.8h-2V99.8h2v3.8c1.4-2.4,3.7-4.3,7.4-4.3
				c5.2,0,8.2,3.5,8.2,8.4v12.5H124.9z"/>
			<path class="st5" d="M149.9,120.8c-6.1,0-10.5-4.9-10.5-10.6v-0.1c0-5.7,4.5-10.7,10.6-10.7c6.1,0,10.5,4.9,10.5,10.6v0.1
				C160.5,115.8,156,120.8,149.9,120.8z M158.3,110.1c0-4.9-3.7-8.9-8.4-8.9c-4.9,0-8.3,4-8.3,8.8v0.1c0,4.9,3.7,8.9,8.4,8.9
				C154.9,118.9,158.3,115,158.3,110.1L158.3,110.1z"/>
			<path class="st5" d="M180.2,120.7c-3.2,0-5.7-1.7-5.7-5.6v-13.4h-3v-1.8h3v-4.9h2v4.9h7.2v1.8h-7.2v13.2c0,2.9,1.7,4,4.1,4
				c1,0,1.8-0.2,3-0.7v1.8C182.5,120.4,181.5,120.7,180.2,120.7z"/>
			<path class="st5" d="M205.1,118.9c3.2,0,5.3-1.4,7-3.2l1.4,1.2c-2.1,2.2-4.5,3.9-8.5,3.9c-5.4,0-10-4.3-10-10.7V110
				c0-5.9,4.2-10.7,9.7-10.7c5.7,0,9.4,4.7,9.4,10.7v0.1c0,0.3,0,0.4,0,0.7h-17C197.4,116,201.1,118.9,205.1,118.9z M212,109.1
				c-0.3-4.1-2.7-7.9-7.3-7.9c-4.1,0-7.2,3.4-7.5,7.9H212z"/>
			<path class="st5" d="M235.7,120.8c-5.9,0-10.4-4.9-10.4-10.6v-0.1c0-5.7,4.6-10.7,10.4-10.7c3.9,0,6.3,1.8,8.2,3.8l-1.4,1.4
				c-1.8-1.8-3.8-3.4-6.8-3.4c-4.7,0-8.3,3.9-8.3,8.8v0.1c0,4.9,3.7,8.9,8.4,8.9c2.9,0,5.1-1.5,6.9-3.4l1.4,1.2
				C242,119.1,239.5,120.8,235.7,120.8z"/>
			<path class="st5" d="M272.1,120.3v-12.2c0-4.2-2.4-7-6.5-7c-4,0-7.1,3-7.1,7.3v11.8h-2V94.2h2v9.4c1.4-2.4,3.7-4.3,7.4-4.3
				c5.2,0,8.2,3.5,8.2,8.4v12.5H272.1z"/>
		</g>
		<path class="st5" d="M292.3,108.8c0,1.3-1.1,2.4-2.4,2.4c-1.3,0-2.4-1.1-2.4-2.4c0-1.3,1.1-2.4,2.4-2.4
			C291.3,106.4,292.3,107.5,292.3,108.8z"/>
		<path class="st5" d="M34.3,108.8c0,1.3-1.1,2.4-2.4,2.4c-1.3,0-2.4-1.1-2.4-2.4c0-1.3,1.1-2.4,2.4-2.4
			C33.2,106.4,34.3,107.5,34.3,108.8z"/>
	</g>
</g>
</svg>
