<?xml version="1.0" encoding="utf-8"?>
<!-- Generator: Adobe Illustrator 24.1.2, SVG Export Plug-In . SVG Version: 6.00 Build 0)  -->
<svg version="1.1" id="Layer_1" xmlns="http://www.w3.org/2000/svg" xmlns:xlink="http://www.w3.org/1999/xlink" x="0px" y="0px"
	 viewBox="0 0 515.2 43.5" style="enable-background:new 0 0 515.2 43.5;" xml:space="preserve">
<style type="text/css">
	.st0{fill:#FFFFFF;}
	.st1{fill:#3C3C3B;}
	.st2{fill:url(#SVGID_1_);}
	.st3{fill:url(#SVGID_2_);}
	.st4{fill:url(#SVGID_3_);}
	.st5{fill:url(#SVGID_4_);}
</style>
<g>
	<g>
		<path class="st0" d="M515.2,22c0,11.8-9.5,21.3-21.3,21.3H235.3c-11.8,0-21.3-9.5-21.3-21.3l0,0c0-11.8,9.5-21.3,21.3-21.3h258.6
			C505.7,0.7,515.2,10.2,515.2,22L515.2,22z"/>
		<g>
			<path class="st1" d="M265.9,33.5V21.3c0-4.2-2.4-7-6.5-7c-4,0-7.1,3-7.1,7.3v11.8h-2V13h2v3.8c1.4-2.4,3.7-4.3,7.4-4.3
				c5.2,0,8.2,3.5,8.2,8.4v12.5L265.9,33.5L265.9,33.5z"/>
			<path class="st1" d="M295.9,33.5v-3.4c-1.4,2-3.9,3.9-7.8,3.9c-3.8,0-7.9-2.2-7.9-6.4v-0.1c0-4.3,3.7-6.7,8.9-6.7
				c2.9,0,4.8,0.4,6.8,0.9v-0.9c0-4.1-2.5-6.3-6.7-6.3c-2.5,0-4.5,0.7-6.4,1.6l-0.7-1.7c2.2-1,4.5-1.8,7.3-1.8c5.3,0,8.5,2.7,8.5,8
				v12.8L295.9,33.5L295.9,33.5z M295.9,23.5c-1.7-0.4-4-0.9-6.9-0.9c-4.3,0-6.7,1.9-6.7,4.8v0.1c0,3,2.8,4.7,5.9,4.7
				c4.2,0,7.7-2.6,7.7-6.3V23.5z"/>
			<path class="st1" d="M327.3,33.5V21.3c0-4.2-2.4-7-6.5-7c-4,0-7.1,3-7.1,7.3v11.8h-2V13h2v3.8c1.4-2.4,3.7-4.3,7.4-4.3
				c5.2,0,8.2,3.5,8.2,8.4v12.5L327.3,33.5L327.3,33.5z"/>
			<path class="st1" d="M352.3,34c-6.1,0-10.5-4.9-10.5-10.6v-0.1c0-5.7,4.5-10.7,10.6-10.7s10.5,4.9,10.5,10.6v0.1
				C362.9,29,358.4,34,352.3,34z M360.7,23.3c0-4.9-3.7-8.9-8.4-8.9c-4.9,0-8.3,4-8.3,8.8v0.1c0,4.9,3.7,8.9,8.4,8.9
				C357.3,32.1,360.7,28.2,360.7,23.3L360.7,23.3z"/>
			<path class="st1" d="M382.6,33.9c-3.2,0-5.7-1.7-5.7-5.6V14.9h-3v-1.8h3V8.2h2v4.9h7.2v1.8h-7.2v13.2c0,2.9,1.7,4,4.1,4
				c1,0,1.8-0.2,3-0.7v1.8C384.9,33.6,383.9,33.9,382.6,33.9z"/>
			<path class="st1" d="M407.5,32.1c3.2,0,5.3-1.4,7-3.2l1.4,1.2c-2.1,2.2-4.5,3.9-8.5,3.9c-5.4,0-10-4.3-10-10.7v-0.1
				c0-5.9,4.2-10.7,9.7-10.7c5.7,0,9.4,4.7,9.4,10.7v0.1c0,0.3,0,0.4,0,0.7h-17C399.8,29.2,403.5,32.1,407.5,32.1z M414.4,22.3
				c-0.3-4.1-2.7-7.9-7.3-7.9c-4.1,0-7.2,3.4-7.5,7.9H414.4z"/>
			<path class="st1" d="M438.1,34c-5.9,0-10.4-4.9-10.4-10.6v-0.1c0-5.7,4.6-10.7,10.4-10.7c3.9,0,6.3,1.8,8.2,3.8l-1.4,1.4
				c-1.8-1.8-3.8-3.4-6.8-3.4c-4.7,0-8.3,3.9-8.3,8.8v0.1c0,4.9,3.7,8.9,8.4,8.9c2.9,0,5.1-1.5,6.9-3.4l1.4,1.2
				C444.4,32.3,441.9,34,438.1,34z"/>
			<path class="st1" d="M474.5,33.5V21.3c0-4.2-2.4-7-6.5-7c-4,0-7.1,3-7.1,7.3v11.8h-2v-26h2v9.4c1.4-2.4,3.7-4.3,7.4-4.3
				c5.2,0,8.2,3.5,8.2,8.4v12.5h-2V33.5z"/>
		</g>
		<path class="st1" d="M494.7,22c0,1.3-1.1,2.4-2.4,2.4s-2.4-1.1-2.4-2.4s1.1-2.4,2.4-2.4C493.7,19.6,494.7,20.7,494.7,22z"/>
		<path class="st1" d="M236.7,22c0,1.3-1.1,2.4-2.4,2.4c-1.3,0-2.4-1.1-2.4-2.4s1.1-2.4,2.4-2.4C235.6,19.6,236.7,20.7,236.7,22z"/>
	</g>
</g>
<g>
	
		<linearGradient id="SVGID_1_" gradientUnits="userSpaceOnUse" x1="123.7014" y1="299.1763" x2="123.7014" y2="255.9317" gradientTransform="matrix(1 0 0 -1 0 299.3627)">
		<stop  offset="0.1168" style="stop-color:#FAEB8D"/>
		<stop  offset="0.416" style="stop-color:#FFF9B1"/>
		<stop  offset="0.4619" style="stop-color:#EDDC92"/>
		<stop  offset="0.5846" style="stop-color:#C09445"/>
		<stop  offset="0.641" style="stop-color:#AE7726"/>
	</linearGradient>
	<path class="st2" d="M147.6,43.4h-10.4v-24c0-1.4-0.2-2.6-0.7-3.7c-0.5-1.1-1.1-2-1.9-2.8c-0.8-0.7-1.7-1.4-2.8-1.8
		c-1.1-0.4-2.2-0.6-3.5-0.6h-18.2v32.9H99.7V5.3c0-0.7,0.1-1.4,0.4-2.1c0.2-0.6,0.6-1.2,1.1-1.6c0.5-0.5,1.1-0.8,1.7-1.1
		c0.6-0.2,1.3-0.4,2.1-0.4h23.5c1.3,0,2.7,0.1,4.2,0.4c1.4,0.3,2.9,0.7,4.3,1.4s2.8,1.5,4.1,2.5c1.3,1,2.4,2.2,3.4,3.7
		c1,1.4,1.8,3.1,2.4,5c0.6,1.9,0.9,4,0.9,6.3L147.6,43.4L147.6,43.4z"/>
	<g>
		
			<linearGradient id="SVGID_2_" gradientUnits="userSpaceOnUse" x1="20.0116" y1="299.3627" x2="20.0116" y2="256.1803" gradientTransform="matrix(1 0 0 -1 0 299.3627)">
			<stop  offset="0.1168" style="stop-color:#FAEB8D"/>
			<stop  offset="0.416" style="stop-color:#FFF9B1"/>
			<stop  offset="0.4619" style="stop-color:#EDDC92"/>
			<stop  offset="0.5846" style="stop-color:#C09445"/>
			<stop  offset="0.641" style="stop-color:#AE7726"/>
		</linearGradient>
		<path class="st3" d="M29.6,43.2H6c-3,0-5.5-2.5-5.5-5.5c0-3,2.5-5.5,5.5-5.5h23c0.1-0.5,0.1-1.2,0.1-2.1V29c0-0.6,0-1.4,0-2.1
			H11.6C9,27,5.3,26.7,2.7,24c-2.7-2.7-2.7-6.2-2.7-9.3c0-0.4,0-1.6,0-1.9c-0.1-2.7-0.3-6.6,2.7-9.7C4.7,1.1,7.6,0,11.3,0h20.9
			c3,0,5.5,2.5,5.5,5.5c0,3-2.5,5.5-5.5,5.5H11.3c-0.1,0-0.2,0-0.4,0c0,0.4,0,0.9,0.1,1.4c0,0.6,0.1,1.1,0.1,1.7c0,0.4,0,0.8,0,1.2
			c0,0.4,0,0.7,0,1.1c0.2,0,0.3,0,0.6,0h17.7c3.4,0,6,0.9,7.9,2.8c2.9,2.9,2.9,6.6,2.8,10.3v0.7C40,33.7,40,43.2,29.6,43.2z"/>
	</g>
	
		<linearGradient id="SVGID_3_" gradientUnits="userSpaceOnUse" x1="69.5525" y1="299.1763" x2="69.5525" y2="255.9317" gradientTransform="matrix(1 0 0 -1 0 299.3627)">
		<stop  offset="0.1168" style="stop-color:#FAEB8D"/>
		<stop  offset="0.416" style="stop-color:#FFF9B1"/>
		<stop  offset="0.4619" style="stop-color:#EDDC92"/>
		<stop  offset="0.5846" style="stop-color:#C09445"/>
		<stop  offset="0.641" style="stop-color:#AE7726"/>
	</linearGradient>
	<path class="st4" d="M92,8c-1-1.9-2.2-3.4-3.7-4.5c-1.4-1.2-3-2-4.7-2.5c-1.7-0.5-3.3-0.7-4.7-0.7H60.1c-0.4,0-0.9,0-1.4,0.1
		c-1.8,0.2-4.7,1.4-4.7,5.5c0,5.1,6.1,4.8,6.1,4.8h18.7c1.4,0,2.4,0.4,3.2,1.1c0.7,0.7,1.1,1.7,1.1,3.1v14.1c0,1.4-0.4,2.4-1.1,3.1
		c-0.7,0.7-1.8,1.1-3.2,1.1H60.1c-1.4,0-2.4-0.4-3.1-1.1c-0.7-0.7-1.1-1.7-1.1-3.2V15.2c0,0,0.1-6-5-6c-3.5,0-5.3,2.2-5.3,4.9v0.1
		c0,0.1,0,0.2,0,0.1c0,0.3,0,0.6,0,0.9v13.7c0,1.5,0.2,3,0.8,4.8c0.5,1.7,1.4,3.3,2.5,4.7s2.7,2.7,4.5,3.6s4.2,1.4,6.8,1.4h18.6
		c1.4,0,3-0.2,4.7-0.7c1.7-0.5,3.3-1.4,4.7-2.5c1.4-1.2,2.7-2.7,3.7-4.5c1-1.9,1.5-4.1,1.5-6.8V14.8C93.5,12.1,93,9.8,92,8z"/>
	
		<linearGradient id="SVGID_4_" gradientUnits="userSpaceOnUse" x1="177.5397" y1="299.1763" x2="177.5397" y2="255.8696" gradientTransform="matrix(1 0 0 -1 0 299.3627)">
		<stop  offset="0.1168" style="stop-color:#FAEB8D"/>
		<stop  offset="0.416" style="stop-color:#FFF9B1"/>
		<stop  offset="0.4619" style="stop-color:#EDDC92"/>
		<stop  offset="0.5846" style="stop-color:#C09445"/>
		<stop  offset="0.641" style="stop-color:#AE7726"/>
	</linearGradient>
	<path class="st5" d="M201.6,14.7c0-1.5-0.2-3-0.8-4.8c-0.5-1.7-1.4-3.3-2.5-4.7s-2.7-2.7-4.5-3.6c-1.9-0.9-4.2-1.4-6.8-1.4h-18.8
		c-1.4,0-3,0.2-4.7,0.7c-1.7,0.5-3.3,1.4-4.7,2.5C157.3,4.6,156,6.1,155,8s-1.5,4.1-1.5,6.8v14.1c0,2.7,0.5,5,1.5,6.8
		c1,1.9,2.2,3.4,3.7,4.5c1.4,1.2,3,2,4.7,2.5c1.7,0.5,3.3,0.7,4.7,0.7h14.4c3.1,0,6.5-1.8,6.5-5.5c0-5-6.5-4.9-6.5-4.9h-14.3
		c-1.4,0-2.4-0.4-3.2-1.1c-0.7-0.7-1.1-1.7-1.1-3.1V14.7c0-1.4,0.4-2.4,1.1-3.1c0.7-0.7,1.8-1.1,3.2-1.1h18.7c1.4,0,2.4,0.4,3.1,1.1
		c0.7,0.7,1.1,1.7,1.1,3.2v11.9v11.7c0,2.8,2.3,5.1,5.1,5.1s5.3-2.3,5.3-5.1L201.6,14.7L201.6,14.7z"/>
</g>
</svg>
